<svg version="1" xmlns="http://www.w3.org/2000/svg" width="392" height="392" viewBox="0 0 294.000000 294.000000"><path d="M139.8 2.5c-.2.1-3.4.5-7.3.8-11.5 1-22 3.2-33 6.9-10.6 3.5-28.6 12.8-37 19C24 57.8 2.9 99 2.8 146c-.1 22.9 4.5 42.6 14.8 63.5 16.8 34.2 46.8 60.5 82.4 72.2 16.5 5.5 32.4 8 47.9 7.7 12.2-.3 15.4-.7 31.9-4 6.8-1.4 20-6.3 29.7-11 25.6-12.5 47.7-33.6 62.1-59 4.5-8 11.1-24.7 13.4-34.2 4.8-19.5 5.7-41.5 2.5-59.2-4.3-23.7-12.8-43.4-27.1-62.5-5.9-8-19.7-21.9-26.4-26.7-2.5-1.8-4.7-3.5-5-3.8-1.1-1.2-13.8-8.9-20-12-9-4.5-27.8-10.5-39-12.4-7.9-1.3-29.4-2.8-30.2-2.1zm21.6 14.9c8.7.9 23.1 4.6 33.1 8.6 23.3 9.2 44.1 26.2 59.3 48.2 4.5 6.5 12.5 22.9 15 30.8 5.2 16.1 6.3 23.4 6.3 41.5.2 52.1-31.4 99-80.2 119.3-25 10.3-54.6 12.4-81.4 5.6-14.1-3.6-29.9-11.1-42.7-20.2-33.9-24.1-54.1-63.5-54.1-105.2 0-7.7 1.1-21.8 1.7-22.9.2-.3.7-2.4 1-4.5 1.7-10.6 11.2-33.3 18.7-44.3 9.1-13.5 22.5-27 35.9-36 12.6-8.4 33.1-17.1 45-18.9 1.9-.3 3.8-.8 4.2-1 .3-.2 4.6-.7 9.5-1 4.8-.4 8.9-.7 9-.8.4-.3 13.6.2 19.7.8z"/><path d="M134.5 54.7c-24 3.3-40.8 15.2-48.1 33.8-1.5 3.9-1.9 7.5-1.9 16.5 0 10.8.2 11.9 3.1 18 3.4 7.1 9.6 13.7 17.1 18.1 6.8 4.1 22.7 9.1 36.3 11.5 1.4.3 4.1.9 6 1.4 1.9.5 4.6 1.1 6 1.4 3.4.6 11.9 3.5 15.1 5.2 4.8 2.4 9 6.6 11.4 11.4 2.1 4.1 2.4 6 2.2 13.1-.2 6.3-.8 9.4-2.4 12.4-11 20.7-47.8 23.4-83.3 6.2-4.7-2.3-8.8-4.3-9.2-4.5-.4-.2-.6 5.3-.6 12.1l.1 12.4 8.1 2.6c19.2 6.1 27.1 7.3 49.6 7.1 12.2-.2 17.2-.6 23.5-2.3 21-5.5 33.2-16.6 37.9-34.1 1.4-5.5 1.6-21.3.2-27.5-1.5-6.5-6.9-15.6-12.3-20.5-6.8-6.2-21.4-13.4-31.5-15.4-38.1-7.8-46.9-11.5-51.3-21.8-1.9-4.7-2.2-13.3-.5-18.4 2.9-9 11.8-16 24.1-18.8 7-1.7 22.9-1.6 31.4.2 7 1.5 19 5.9 25.3 9.3l5.2 2.8V63.2l-6.2-2.1c-12.9-4.1-25.9-6.3-39.3-6.6-7.1-.1-14.3 0-16 .2z"/></svg>