<?xml version="1.0" standalone="no"?>
<!DOCTYPE svg PUBLIC "-//W3C//DTD SVG 20010904//EN"
 "http://www.w3.org/TR/2001/REC-SVG-20010904/DTD/svg10.dtd">
<svg version="1.0" xmlns="http://www.w3.org/2000/svg"
 width="260.000000pt" height="260.000000pt" viewBox="0 0 260.000000 260.000000"
 preserveAspectRatio="xMidYMid meet">
<metadata>
Created by potrace 1.11, written by Peter Selinger 2001-2013
</metadata>
<g transform="translate(0.000000,260.000000) scale(0.100000,-0.100000)"
fill="#000000" stroke="none">
<path d="M1140 2569 c-25 -4 -63 -10 -85 -13 -148 -23 -346 -107 -495 -210
-96 -66 -241 -211 -308 -309 -96 -139 -185 -348 -207 -487 -4 -25 -9 -54 -12
-65 -2 -11 -6 -78 -7 -150 -7 -292 80 -563 253 -790 146 -192 307 -314 566
-425 24 -11 148 -46 190 -54 17 -4 41 -9 55 -12 14 -3 88 -7 165 -9 124 -3
200 2 285 20 14 3 37 7 52 10 56 10 207 69 290 112 351 184 610 548 665 933
15 102 8 348 -11 440 -110 516 -517 911 -1031 1000 -80 14 -298 20 -365 9z
m270 -124 c136 -11 253 -45 386 -110 394 -191 646 -602 638 -1039 -1 -85 -9
-171 -19 -206 -2 -8 -6 -26 -9 -40 -8 -51 -57 -183 -95 -258 -172 -339 -501
-571 -881 -619 -80 -11 -249 -7 -333 7 -363 61 -694 317 -848 655 -164 362
-128 778 96 1121 61 92 237 261 336 322 154 94 335 156 493 168 45 4 82 7 83
8 3 3 64 -1 153 -9z"/>
<path d="M1144 2095 c-176 -39 -292 -122 -357 -255 -27 -57 -31 -77 -34 -161
-3 -136 22 -207 105 -285 63 -60 229 -128 365 -149 74 -12 227 -54 266 -74 82
-42 119 -101 126 -199 7 -117 -54 -207 -171 -252 -48 -19 -82 -24 -179 -26
-146 -3 -250 20 -398 89 l-97 46 0 -109 0 -109 98 -31 c140 -43 255 -59 412
-56 297 6 465 99 535 296 36 102 22 278 -29 365 -74 125 -189 186 -456 244
-175 38 -246 63 -294 103 -46 37 -66 85 -66 155 0 170 151 266 393 250 113 -8
187 -27 295 -77 l82 -39 0 103 0 104 -27 10 c-25 10 -94 29 -133 37 -8 2 -37
9 -65 15 -75 18 -298 21 -371 5z"/>
</g>
</svg>
